<?xml version="1.0" encoding="UTF-8"?>
<svg id="Capa_1" xmlns="http://www.w3.org/2000/svg" version="1.1" viewBox="0 0 82.8 21">
  <!-- Generator: Adobe Illustrator 30.2.1, SVG Export Plug-In . SVG Version: 2.1.1 Build 1)  -->
  <defs>
    <style>
      .st0 {
        fill: #a42b87;
      }

      .st1 {
        fill: #c75b9e;
      }

      .st2 {
        fill: #f6a44d;
      }

      .st3 {
        fill: #feca11;
      }

      .st4 {
        fill: #009c8e;
      }

      .st5 {
        fill: #ffdc4e;
      }

      .st6 {
        fill: #ca1b72;
      }

      .st7 {
        fill: #4e97d0;
      }

      .st8 {
        fill: #48b8ab;
      }
    </style>
  </defs>
  <path class="st2" d="M27.9,3.7c-1.7,0-6.1,3.3-9.1,6.9,1.4,1.9,2.5,3.8,2.7,6.2h0c0,1-.8,1.9-1.7,2.2-.3,0-.6.2-.9.2,1.8.6,4.5.8,7.4.8s3.6,0,5.4-.3c-.6-.6-.8-1.5-.8-2.7h0c0-2.5,1-5.8,2.4-8.9-1.7-2.2-3.6-4-5.1-4.4h-.3"/>
  <path class="st7" d="M59.1,4.7c-2.1,0-4.9,2.1-7.3,4.7,2,3.5,3.8,7.6,3.9,9.6h.3c2.3.2,6.8.7,7.5.8h.5c1.2,0,1.8-.7,1.9-1.8-.7,0-1.6.2-2.4.2s-1.8-.2-2.1-.7c-.2-.3-.2-.7-.2-1h0c0-1.6,1.1-3.6,2.7-5.5-1.7-3.3-3.9-6.3-4.8-6.3"/>
  <path class="st1" d="M39.7,0h0c-1.7,0-4.5,3.9-6.4,8.2,2.4,3,4.4,6.5,4.8,7.9.3,1.1,0,2.8-1.6,3.1s-3.2.5-4.8.6c0,0,.2.2.3.2,1.2.7,4.9,1,9.1,1h.2c5.6,0,11.9-.5,13.9-.9.4,0,.5-.4.5-1h0v-.2h-.2c-.8,0-2,0-3.1.2-1.1,0-2.3.2-3.2.2s-1.4,0-1.7-.2c-.4-.2-.5-.6-.5-1.1h0c0-1.9,2.2-5.6,5-8.6-1.9-3.4-4.1-6.3-5.1-6.4h0c-.6,0-1.2.1-1.7.3-.5.1-1,.3-1.4.3s-.5,0-.7-.1c-1.2-.5-1.2-3.4-3.1-3.4"/>
  <path class="st6" d="M33.3,8.2c-1.4,3.1-2.4,6.5-2.4,8.9h0c0,1.2.3,2.2.8,2.7,1.6,0,3.2-.3,4.8-.6s1.9-2,1.6-3.1c-.4-1.4-2.4-5-4.8-7.9"/>
  <path class="st0" d="M51.8,9.4c-2.8,3-5,6.7-5,8.6h0c0,.5.2.9.5,1.1.3.2,1,.2,1.7.2s2.1,0,3.2-.2c1.1,0,2.3-.2,3.1-.2s.2,0,.2,0c0-2-1.9-6.1-3.9-9.6"/>
  <path class="st8" d="M71,5.7h0c-1.6,0-4.7,2.5-7,5.3,1.3,2.5,2.2,5.3,2,7,.6,0,1.1-.2,1.3-.2,1.6,0,6.2.6,9.9.7h.2c2.4,0,4.4-.3,5-1.2,1.7-2.5-2.5-6.1-5.6-7.2-1.6-.6-3.7-4.3-5.8-4.3"/>
  <path class="st4" d="M63.9,11c-1.5,1.9-2.6,3.9-2.7,5.5h0c0,.4,0,.8.2,1.1.2.5,1.1.7,2.1.7s1.7,0,2.4-.2c.2-1.7-.8-4.5-2-7"/>
  <path class="st5" d="M13.7,5.8c-1.1,0-2.5.5-4,1.5-1.6,1.1-1.8,3.2-3.7,4.8-2.6,2.1-6,3.5-6,5.7h0c0,.3,0,.6.2,1,.4.9,4.1,1.3,8.4,1.3h.2c3.7,0,7.7-.3,10.1-.8-1.2-.4-2-.8-2.4-1.4-.3-.4-.4-.9-.4-1.4h0c0-1.7,1.2-3.7,2.8-5.8-1-1.4-2.3-2.7-3.5-4.2-.4-.4-.9-.7-1.7-.7"/>
  <path class="st3" d="M18.8,10.7c-1.6,2-2.8,4.1-2.8,5.7h0c0,.6.1,1,.4,1.4.4.6,1.3,1.1,2.4,1.4.3,0,.6,0,.9-.2.9-.3,1.7-1.1,1.7-2h0c-.2-2.5-1.2-4.4-2.7-6.3"/>
</svg>