<?xml version="1.0" encoding="UTF-8"?>
<svg id="Capa_1" xmlns="http://www.w3.org/2000/svg" version="1.1" viewBox="0 0 113.4 56.7">
  <!-- Generator: Adobe Illustrator 30.2.1, SVG Export Plug-In . SVG Version: 2.1.1 Build 1)  -->
  <defs>
    <style>
      .st0 {
        fill: #4e97d0;
      }

      .st1 {
        fill: #48b8ab;
      }

      .st2, .st3 {
        fill: #fff;
      }

      .st3 {
        fill-rule: evenodd;
      }

      .st4 {
        fill: #009c8e;
      }

      .st5 {
        fill: #f6a44d;
      }

      .st6 {
        fill: #ffdc4e;
      }

      .st7 {
        fill: #a42b87;
      }

      .st8 {
        fill: #ca1b72;
      }

      .st9 {
        fill: #feca11;
      }

      .st10 {
        fill: #c75b9e;
      }
    </style>
  </defs>
  <path class="st5" d="M43.2,24.2c-1.7,0-6.1,3.3-9.1,6.9,1.4,1.9,2.5,3.8,2.7,6.2,0,0,0,0,0,.1h0c0,.9-.8,1.8-1.7,2.1-.3,0-.6.2-.9.2,1.8.6,4.5.8,7.4.8s3.6,0,5.4-.3c-.6-.6-.8-1.5-.8-2.7h0c0-2.5,1-5.8,2.4-8.9-1.7-2.2-3.6-4-5.1-4.4,0,0-.2,0-.3,0"/>
  <path class="st0" d="M74.4,25.2c-2.1,0-4.9,2.1-7.3,4.7,2,3.5,3.8,7.6,3.9,9.6.1,0,.2,0,.3,0,2.3.2,6.8.7,7.5.8.2,0,.3,0,.5,0h0c1.2,0,1.8-.7,1.9-1.8-.7,0-1.6.2-2.4.2s-1.8-.2-2.1-.7c-.2-.3-.2-.7-.2-1h0c0-1.6,1.1-3.6,2.7-5.5-1.7-3.3-3.9-6.3-4.8-6.3"/>
  <path class="st10" d="M55,20.5h0c-1.7,0-4.5,3.9-6.4,8.2,2.4,3,4.4,6.5,4.8,7.9.3,1.1,0,2.8-1.6,3.1-1.6.3-3.2.5-4.8.6,0,0,.2.2.3.2,1.2.7,4.9,1,9.1,1h.2c5.6,0,11.9-.5,13.9-.9.4,0,.5-.4.5-1h0c0,0,0-.2,0-.2,0,0-.2,0-.2,0-.8,0-2,0-3.1.2-1.1,0-2.3.2-3.2.2s-1.4,0-1.7-.2c-.4-.2-.5-.6-.5-1.1h0c0-1.9,2.2-5.6,5-8.6-1.9-3.4-4.1-6.3-5.1-6.4h0c-.6,0-1.2.1-1.7.3-.5.1-1,.3-1.4.3s-.5,0-.7-.1c-1.2-.5-1.2-3.4-3.1-3.4"/>
  <path class="st8" d="M48.6,28.7c-1.4,3.1-2.4,6.5-2.4,8.9h0c0,1.2.3,2.2.8,2.7,1.6-.1,3.2-.3,4.8-.6,1.6-.3,1.9-2,1.6-3.1-.4-1.4-2.4-5-4.8-7.9"/>
  <path class="st7" d="M67.1,29.9c-2.8,3-5,6.7-5,8.6h0c0,.5.2.9.5,1.1.3.2,1,.2,1.7.2s2.1,0,3.2-.2c1.1,0,2.3-.2,3.1-.2s.2,0,.2,0c-.1-2-1.9-6.1-3.9-9.6"/>
  <path class="st1" d="M86.3,26.2h0c-1.6,0-4.7,2.5-7,5.3,1.3,2.5,2.2,5.3,2,7,.6,0,1.1-.2,1.3-.2,1.6,0,6.2.6,9.9.7h.2c2.4,0,4.4-.3,5-1.2,1.7-2.5-2.5-6.1-5.6-7.2-1.6-.6-3.7-4.3-5.8-4.3"/>
  <path class="st4" d="M79.2,31.5c-1.5,1.9-2.6,3.9-2.7,5.5h0c0,.4,0,.8.2,1.1.2.5,1.1.7,2.1.7s1.7-.1,2.4-.2c.2-1.7-.8-4.5-2-7"/>
  <path class="st6" d="M29,26.3c-1.1,0-2.5.5-4,1.5-1.6,1.1-1.8,3.2-3.7,4.8-2.6,2.1-6,3.5-6,5.7h0c0,.3,0,.6.2,1,.4.9,4.1,1.3,8.4,1.3h.2c3.7,0,7.7-.3,10.1-.8-1.2-.4-2-.8-2.4-1.4-.3-.4-.4-.9-.4-1.4h0c0-1.7,1.2-3.7,2.8-5.8-1-1.4-2.3-2.7-3.5-4.2-.4-.4-.9-.7-1.7-.7"/>
  <path class="st9" d="M34.1,31.2c-1.6,2-2.8,4.1-2.8,5.7h0c0,.6.1,1,.4,1.4.4.6,1.3,1.1,2.4,1.4.3,0,.6-.1.9-.2.9-.3,1.7-1.1,1.7-2h0s0,0,0-.1c-.2-2.4-1.2-4.3-2.7-6.2"/>
  <path class="st3" d="M14.6,16c0-.3.3-.5.7-.5s.6.1.9.3l.2-.3c-.3-.3-.6-.4-1.1-.4s-1,.4-1,.8.3.7,1,.9c.6.1.8.3.8.6s-.3.5-.7.5-.7-.1-1.1-.4l-.2.3c.4.3.8.5,1.3.5s1.1-.3,1.1-.9-.3-.7-1-.9c-.7-.1-.8-.3-.8-.6"/>
  <polygon class="st3" points="19.4 15.2 17.2 15.2 17.2 18.3 19.4 18.3 19.4 18 17.5 18 17.5 16.9 19.2 16.9 19.2 16.6 17.5 16.6 17.5 15.5 19.4 15.5 19.4 15.2"/>
  <path class="st3" d="M22.7,18.3l-.9-1.3c.5,0,.8-.4.8-.9s-.4-.9-1.1-.9h-1.3v3.1h.3v-1.2h.9l.9,1.2h.4ZM22.2,16.1c0,.4-.3.6-.8.6h-.9v-1.3h1c.5,0,.8.2.8.6"/>
  <path class="st3" d="M25.9,18.3l-.9-1.3c.5,0,.8-.4.8-.9s-.4-.9-1.1-.9h-1.3v3.1h.3v-1.2h.9l.9,1.2h.4ZM25.4,16.1c0,.4-.3.6-.8.6h-.9v-1.3h1c.5,0,.8.2.8.6"/>
  <path class="st3" d="M28,15.2h-.3l-1.4,3.1h.4l.4-.8h1.7l.4.8h.4l-1.4-3.1ZM28.5,17.2h-1.4l.7-1.6.7,1.6Z"/>
  <path class="st3" d="M34,16.7c0-.9-.7-1.5-1.6-1.5h-1.1v3.1h1.1c1,0,1.6-.7,1.6-1.5M33.7,16.7c0,.7-.5,1.2-1.3,1.2h-.7v-2.4h.7c.8,0,1.3.5,1.3,1.2"/>
  <polygon class="st3" points="37 15.2 34.8 15.2 34.8 18.3 37 18.3 37 18 35.1 18 35.1 16.9 36.8 16.9 36.8 16.6 35.1 16.6 35.1 15.5 37 15.5 37 15.2"/>
  <polygon class="st3" points="39.6 18.3 40.5 18.3 40.5 15.9 41.4 15.9 41.4 15.2 38.7 15.2 38.7 15.9 39.6 15.9 39.6 18.3"/>
  <path class="st3" d="M41.8,18.3h.9v-.9h.4l.6.9h1l-.7-1.1c.4-.2.6-.5.6-.9h0c0-.3,0-.6-.3-.7-.2-.2-.5-.3-1-.3h-1.5v3.1ZM42.6,16.7v-.7h.6c.3,0,.5.1.5.4h0c0,.2-.2.4-.5.4h-.6Z"/>
  <path class="st3" d="M44.7,18.3h.9l.2-.6h1.2l.2.6h.9l-1.3-3.1h-.8l-1.3,3.1ZM46,17.1l.3-.9.3.9h-.7Z"/>
  <polygon class="st3" points="48.4 18.3 49.2 18.3 49.2 16.5 50 17.7 50 17.7 50.8 16.5 50.8 18.3 51.7 18.3 51.7 15.2 50.8 15.2 50 16.4 49.3 15.2 48.4 15.2 48.4 18.3"/>
  <path class="st3" d="M53.6,18.3c.9,0,1.4-.4,1.4-1.4v-1.7h-.9v1.7c0,.4-.2.6-.6.6s-.6-.2-.6-.7v-1.7h-.9v1.7c0,1,.6,1.4,1.4,1.4"/>
  <polygon class="st3" points="55.6 18.3 56.4 18.3 56.4 16.6 57.7 18.3 58.5 18.3 58.5 15.2 57.6 15.2 57.6 16.8 56.4 15.2 55.6 15.2 55.6 18.3"/>
  <polygon class="st3" points="59.8 18.3 60.6 18.3 60.6 15.9 61.6 15.9 61.6 15.2 58.9 15.2 58.9 15.9 59.8 15.9 59.8 18.3"/>
  <path class="st3" d="M61.3,18.3h.9l.2-.6h1.2l.2.6h.9l-1.3-3.1h-.8l-1.3,3.1ZM62.7,17.1l.3-.9.3.9h-.7Z"/>
  <polygon class="st3" points="65 18.3 65.9 18.3 65.9 16.6 67.2 18.3 68 18.3 68 15.2 67.1 15.2 67.1 16.8 65.8 15.2 65 15.2 65 18.3"/>
  <path class="st3" d="M68.3,18.3h.9l.2-.6h1.2l.2.6h.9l-1.3-3.1h-.8l-1.3,3.1ZM69.6,17.1l.3-.9.3.9h-.7Z"/>
  <polygon class="st3" points="76.2 15.8 76.2 18.3 76.5 18.3 76.5 15.2 76.2 15.2 75 16.9 73.9 15.2 73.6 15.2 73.6 18.3 73.9 18.3 73.9 15.8 75 17.4 75 17.4 76.2 15.8"/>
  <path class="st3" d="M78.9,15.2h-.3l-1.4,3.1h.4l.4-.8h1.7l.4.8h.4l-1.4-3.1ZM79.4,17.2h-1.4l.7-1.6.7,1.6Z"/>
  <polygon class="st3" points="80.9 18.3 83 18.3 83 18 81.2 18 81.2 15.2 80.9 15.2 80.9 18.3"/>
  <polygon class="st3" points="83.6 18.3 85.7 18.3 85.7 18 83.9 18 83.9 15.2 83.6 15.2 83.6 18.3"/>
  <path class="st3" d="M89.2,16.7c0-.9-.6-1.6-1.6-1.6s-1.6.7-1.6,1.6.6,1.6,1.6,1.6,1.6-.7,1.6-1.6M88.8,16.7c0,.7-.5,1.3-1.2,1.3s-1.2-.6-1.2-1.3.5-1.3,1.2-1.3,1.2.6,1.2,1.3"/>
  <path class="st3" d="M92.5,18.3l-.9-1.3c.5,0,.8-.4.8-.9s-.4-.9-1.1-.9h-1.3v3.1h.3v-1.2h.9l.9,1.2h.4ZM92,16.1c0,.4-.3.6-.8.6h-.9v-1.3h1c.5,0,.8.2.8.6"/>
  <path class="st3" d="M95.7,17.8l-.2-.2c-.3.3-.6.4-1,.4-.7,0-1.2-.6-1.2-1.3s.5-1.3,1.2-1.3.7.2,1,.4l.2-.3c-.3-.3-.6-.5-1.2-.5-.9,0-1.6.7-1.6,1.6s.7,1.6,1.5,1.6.9-.2,1.2-.5"/>
  <path class="st3" d="M97.8,15.2h-.3l-1.4,3.1h.4l.4-.8h1.7l.4.8h.4l-1.4-3.1ZM98.3,17.2h-1.4l.7-1.6.7,1.6Z"/>
  <path class="st3" d="M68.9,21.4c0-.4-.3-.7-.8-.7h-.8v2.1h.2v-.7h.5c.4,0,.8-.2.8-.7M68.6,21.4c0,.3-.2.5-.6.5h-.5v-.9h.5c.3,0,.6.2.6.5"/>
  <path class="st3" d="M70.1,20.8h-.2l-.9,2.1h.2l.2-.5h1.1l.2.5h.2l-.9-2.1ZM70.4,22.1h-.9l.5-1.1.5,1.1Z"/>
  <polygon class="st3" points="71.9 21 72.6 21 72.6 20.8 71 20.8 71 21 71.7 21 71.7 22.8 71.9 22.8 71.9 21"/>
  <path class="st3" d="M74.8,22.8l-.6-.8c.3,0,.6-.3.6-.6s-.3-.6-.7-.6h-.9v2.1h.2v-.8h.6l.6.8h.3ZM74.5,21.4c0,.3-.2.4-.5.4h-.6v-.8h.6c.3,0,.5.2.5.4"/>
  <rect class="st2" x="75.2" y="20.8" width=".2" height="2.1"/>
  <polygon class="st3" points="77.8 21.2 77.8 22.8 78 22.8 78 20.8 77.8 20.8 77 21.9 76.3 20.8 76 20.8 76 22.8 76.3 22.8 76.3 21.2 77 22.3 77 22.3 77.8 21.2"/>
  <path class="st3" d="M80.6,21.8c0-.6-.4-1.1-1-1.1s-1.1.5-1.1,1.1.4,1.1,1,1.1,1.1-.5,1.1-1.1M80.4,21.8c0,.5-.3.8-.8.8s-.8-.4-.8-.9.3-.8.8-.8.8.4.8.9"/>
  <polygon class="st3" points="82.6 22.4 81.3 20.8 81.1 20.8 81.1 22.8 81.3 22.8 81.3 21.1 82.7 22.8 82.8 22.8 82.8 20.8 82.6 20.8 82.6 22.4"/>
  <rect class="st2" x="83.4" y="20.8" width=".2" height="2.1"/>
  <polygon class="st3" points="86.9 21.2 86.9 22.8 87.1 22.8 87.1 20.8 86.9 20.8 86.1 21.9 85.4 20.8 85.2 20.8 85.2 22.8 85.4 22.8 85.4 21.2 86.1 22.3 86.1 22.3 86.9 21.2"/>
  <path class="st3" d="M89.4,20.8h-.2v1.2c0,.5-.2.7-.6.7s-.6-.2-.6-.7v-1.2h-.2v1.2c0,.6.3.9.9.9s.9-.3.9-.9v-1.2Z"/>
  <polygon class="st3" points="91.5 22.4 90.2 20.8 89.9 20.8 89.9 22.8 90.2 22.8 90.2 21.1 91.5 22.8 91.7 22.8 91.7 20.8 91.5 20.8 91.5 22.4"/>
  <path class="st3" d="M94.1,21.8c0-.6-.4-1-1.1-1h-.7v2.1h.7c.6,0,1.1-.5,1.1-1M93.8,21.8c0,.5-.3.8-.9.8h-.5v-1.6h.5c.5,0,.9.4.9.8"/>
  <rect class="st2" x="94.6" y="20.8" width=".2" height="2.1"/>
  <path class="st3" d="M96.4,20.8h-.2l-.9,2.1h.2l.2-.5h1.1l.2.5h.2l-.9-2.1ZM96.7,22.1h-.9l.5-1.1.5,1.1Z"/>
  <polygon class="st3" points="97.7 22.8 99.1 22.8 99.1 22.6 98 22.6 98 20.8 97.7 20.8 97.7 22.8"/>
</svg>