<?xml version="1.0" encoding="UTF-8"?>
<svg id="Capa_1" xmlns="http://www.w3.org/2000/svg" version="1.1" viewBox="0 0 85.3 26.5">
  <!-- Generator: Adobe Illustrator 30.2.1, SVG Export Plug-In . SVG Version: 2.1.1 Build 1)  -->
  <defs>
    <style>
      .st0 {
        fill: #a42b87;
      }

      .st1, .st2 {
        fill: #fff;
      }

      .st2 {
        fill-rule: evenodd;
      }

      .st3 {
        fill: #c75b9e;
      }

      .st4 {
        fill: #f6a44d;
      }

      .st5 {
        fill: #feca11;
      }

      .st6 {
        fill: #009c8e;
      }

      .st7 {
        fill: #ffdc4e;
      }

      .st8 {
        fill: #ca1b72;
      }

      .st9 {
        fill: #4e97d0;
      }

      .st10 {
        fill: #48b8ab;
      }
    </style>
  </defs>
  <path class="st4" d="M29.1,9.2c-1.7,0-6.1,3.3-9.1,6.9,1.4,1.9,2.5,3.8,2.7,6.2h0c0,1-.8,1.9-1.7,2.2-.3,0-.6.2-.9.2,1.8.6,4.5.8,7.4.8s3.6,0,5.4-.3c-.6-.6-.8-1.5-.8-2.7h0c0-2.5,1-5.8,2.4-8.9-1.7-2.2-3.6-4-5.1-4.4h-.3"/>
  <path class="st9" d="M60.3,10.2c-2.1,0-4.9,2.1-7.3,4.7,2,3.5,3.8,7.6,3.9,9.6h.3c2.3.2,6.8.7,7.5.8h.5c1.2,0,1.8-.7,1.9-1.8-.7,0-1.6.2-2.4.2s-1.8-.2-2.1-.7c-.2-.3-.2-.7-.2-1h0c0-1.6,1.1-3.6,2.7-5.5-1.7-3.3-3.9-6.3-4.8-6.3"/>
  <path class="st3" d="M40.9,5.5h0c-1.7,0-4.5,3.9-6.4,8.2,2.4,3,4.4,6.5,4.8,7.9.3,1.1,0,2.8-1.6,3.1s-3.2.5-4.8.6c0,0,.2.2.3.2,1.2.7,4.9,1,9.1,1h.2c5.6,0,11.9-.5,13.9-.9.4,0,.5-.4.5-1h0v-.2h-.2c-.8,0-2,0-3.1.2-1.1,0-2.3.2-3.2.2s-1.4,0-1.7-.2c-.4-.2-.5-.6-.5-1.1h0c0-1.9,2.2-5.6,5-8.6-1.9-3.4-4.1-6.3-5.1-6.4h0c-.6,0-1.2.1-1.7.3-.5.1-1,.3-1.4.3s-.5,0-.7-.1c-1.2-.5-1.2-3.4-3.1-3.4"/>
  <path class="st8" d="M34.5,13.7c-1.4,3.1-2.4,6.5-2.4,8.9h0c0,1.2.3,2.2.8,2.7,1.6,0,3.2-.3,4.8-.6s1.9-2,1.6-3.1c-.4-1.4-2.4-5-4.8-7.9"/>
  <path class="st0" d="M53,14.9c-2.8,3-5,6.7-5,8.6h0c0,.5.2.9.5,1.1.3.2,1,.2,1.7.2s2.1,0,3.2-.2c1.1,0,2.3-.2,3.1-.2s.2,0,.2,0c0-2-1.9-6.1-3.9-9.6"/>
  <path class="st10" d="M72.2,11.2h0c-1.6,0-4.7,2.5-7,5.3,1.3,2.5,2.2,5.3,2,7,.6,0,1.1-.2,1.3-.2,1.6,0,6.2.6,9.9.7h.2c2.4,0,4.4-.3,5-1.2,1.7-2.5-2.5-6.1-5.6-7.2-1.6-.6-3.7-4.3-5.8-4.3"/>
  <path class="st6" d="M65.1,16.5c-1.5,1.9-2.6,3.9-2.7,5.5h0c0,.4,0,.8.2,1.1.2.5,1.1.7,2.1.7s1.7,0,2.4-.2c.2-1.7-.8-4.5-2-7"/>
  <path class="st7" d="M14.9,11.3c-1.1,0-2.5.5-4,1.5-1.6,1.1-1.8,3.2-3.7,4.8-2.6,2.1-6,3.5-6,5.7h0c0,.3,0,.6.2,1,.4.9,4.1,1.3,8.4,1.3h.2c3.7,0,7.7-.3,10.1-.8-1.2-.4-2-.8-2.4-1.4-.3-.4-.4-.9-.4-1.4h0c0-1.7,1.2-3.7,2.8-5.8-1-1.4-2.3-2.7-3.5-4.2-.4-.4-.9-.7-1.7-.7"/>
  <path class="st5" d="M20,16.2c-1.6,2-2.8,4.1-2.8,5.7h0c0,.6.1,1,.4,1.4.4.6,1.3,1.1,2.4,1.4.3,0,.6,0,.9-.2.9-.3,1.7-1.1,1.7-2h0c-.2-2.5-1.2-4.4-2.7-6.3"/>
  <path class="st2" d="M.5,1c0-.3.3-.5.7-.5s.6.1.9.3l.2-.3C2,.2,1.7.1,1.2.1S.2.5.2.9s.3.7,1,.9c.6.1.8.3.8.6s-.3.5-.7.5-.7-.1-1.1-.4l-.2.3c.4.3.8.5,1.3.5s1.1-.3,1.1-.9-.3-.7-1-.9c-.7-.1-.8-.3-.8-.6"/>
  <polygon class="st2" points="5.3 .2 3.1 .2 3.1 3.3 5.3 3.3 5.3 3 3.4 3 3.4 1.9 5.1 1.9 5.1 1.6 3.4 1.6 3.4 .5 5.3 .5 5.3 .2"/>
  <path class="st2" d="M8.6,3.3l-.9-1.3c.5,0,.8-.4.8-.9s-.4-.9-1.1-.9h-1.3v3.1h.3v-1.2h.9l.9,1.2s.4,0,.4,0ZM8.1,1.1c0,.4-.3.6-.8.6h-.9V.4h1c.5,0,.8.2.8.6"/>
  <path class="st2" d="M11.8,3.3l-.9-1.3c.5,0,.8-.4.8-.9s-.4-.9-1.1-.9h-1.3v3.1h.3v-1.2h.9l.9,1.2s.4,0,.4,0ZM11.3,1.1c0,.4-.3.6-.8.6h-.9V.4h1c.5,0,.8.2.8.6"/>
  <path class="st2" d="M13.9.2h-.3l-1.4,3.1h.4l.4-.8h1.7l.4.8h.4L14.1.2h-.2ZM14.4,2.2h-1.4l.7-1.6s.7,1.6.7,1.6Z"/>
  <path class="st2" d="M19.9,1.7c0-.9-.7-1.5-1.6-1.5h-1.1v3.1h1.1c1,0,1.6-.7,1.6-1.5M19.6,1.7c0,.7-.5,1.2-1.3,1.2h-.7V.5h.7c.8,0,1.3.5,1.3,1.2"/>
  <polygon class="st2" points="22.9 .2 20.7 .2 20.7 3.3 22.9 3.3 22.9 3 21 3 21 1.9 22.7 1.9 22.7 1.6 21 1.6 21 .5 22.9 .5 22.9 .2"/>
  <polygon class="st2" points="25.5 3.3 26.4 3.3 26.4 .9 27.3 .9 27.3 .2 24.6 .2 24.6 .9 25.5 .9 25.5 3.3"/>
  <path class="st2" d="M27.7,3.3h.9v-.9h.4l.6.9h1l-.7-1.1c.4-.2.6-.5.6-.9h0c0-.3,0-.6-.3-.7-.2-.2-.5-.3-1-.3h-1.5v3.1h0ZM28.5,1.7v-.7h.6c.3,0,.5.1.5.4h0c0,.2-.2.4-.5.4h-.6Z"/>
  <path class="st2" d="M30.6,3.3h.9l.2-.6h1.2l.2.6h.9l-1.3-3.1h-.8s-1.3,3.1-1.3,3.1ZM31.9,2.1l.3-.9.3.9h-.7.1Z"/>
  <polygon class="st2" points="34.3 3.3 35.1 3.3 35.1 1.5 35.9 2.7 35.9 2.7 36.7 1.5 36.7 3.3 37.6 3.3 37.6 .2 36.7 .2 35.9 1.4 35.2 .2 34.3 .2 34.3 3.3"/>
  <path class="st2" d="M39.5,3.3c.9,0,1.4-.4,1.4-1.4V.2h-.9v1.7c0,.4-.2.6-.6.6s-.6-.2-.6-.7V.1h-.9v1.7c0,1,.6,1.4,1.4,1.4"/>
  <polygon class="st2" points="41.5 3.3 42.3 3.3 42.3 1.6 43.6 3.3 44.4 3.3 44.4 .2 43.5 .2 43.5 1.8 42.3 .2 41.5 .2 41.5 3.3"/>
  <polygon class="st2" points="45.7 3.3 46.5 3.3 46.5 .9 47.5 .9 47.5 .2 44.8 .2 44.8 .9 45.7 .9 45.7 3.3"/>
  <path class="st2" d="M47.2,3.3h.9l.2-.6h1.2l.2.6h.9l-1.3-3.1h-.8s-1.3,3.1-1.3,3.1ZM48.6,2.1l.3-.9.3.9h-.7.1Z"/>
  <polygon class="st2" points="50.9 3.3 51.8 3.3 51.8 1.6 53.1 3.3 53.9 3.3 53.9 .2 53 .2 53 1.8 51.7 .2 50.9 .2 50.9 3.3"/>
  <path class="st2" d="M54.2,3.3h.9l.2-.6h1.2l.2.6h.9l-1.3-3.1h-.8l-1.3,3.1h0ZM55.5,2.1l.3-.9.3.9h-.7,0Z"/>
  <polygon class="st2" points="62.1 .8 62.1 3.3 62.4 3.3 62.4 .2 62.1 .2 60.9 1.9 59.8 .2 59.5 .2 59.5 3.3 59.8 3.3 59.8 .8 60.9 2.4 60.9 2.4 62.1 .8"/>
  <path class="st2" d="M64.8.2h-.3l-1.4,3.1h.4l.4-.8h1.7l.4.8h.4l-1.4-3.1h-.2ZM65.3,2.2h-1.4l.7-1.6s.7,1.6.7,1.6Z"/>
  <polygon class="st2" points="66.8 3.3 68.9 3.3 68.9 3 67.1 3 67.1 .2 66.8 .2 66.8 3.3"/>
  <polygon class="st2" points="69.5 3.3 71.6 3.3 71.6 3 69.8 3 69.8 .2 69.5 .2 69.5 3.3"/>
  <path class="st2" d="M75.1,1.7c0-.9-.6-1.6-1.6-1.6s-1.6.7-1.6,1.6.6,1.6,1.6,1.6,1.6-.7,1.6-1.6M74.7,1.7c0,.7-.5,1.3-1.2,1.3s-1.2-.6-1.2-1.3.5-1.3,1.2-1.3,1.2.6,1.2,1.3"/>
  <path class="st2" d="M78.4,3.3l-.9-1.3c.5,0,.8-.4.8-.9s-.4-.9-1.1-.9h-1.3v3.1h.3v-1.2h.9l.9,1.2s.4,0,.4,0ZM77.9,1.1c0,.4-.3.6-.8.6h-.9V.4h1c.5,0,.8.2.8.6"/>
  <path class="st2" d="M81.6,2.8l-.2-.2c-.3.3-.6.4-1,.4-.7,0-1.2-.6-1.2-1.3s.5-1.3,1.2-1.3.7.2,1,.4l.2-.3c-.3-.3-.6-.5-1.2-.5-.9,0-1.6.7-1.6,1.6s.7,1.6,1.5,1.6.9-.2,1.2-.5"/>
  <path class="st2" d="M83.7.2h-.3l-1.4,3.1h.4l.4-.8h1.7l.4.8h.4l-1.4-3.1h-.2ZM84.2,2.2h-1.4l.7-1.6s.7,1.6.7,1.6Z"/>
  <path class="st2" d="M54.8,6.4c0-.4-.3-.7-.8-.7h-.8v2.1h.2v-.7h.5c.4,0,.8-.2.8-.7M54.5,6.4c0,.3-.2.5-.6.5h-.5v-.9h.5c.3,0,.6.2.6.5"/>
  <path class="st2" d="M56,5.8h-.2l-.9,2.1h.2l.2-.5h1.1l.2.5h.2l-.9-2.1h.1ZM56.3,7.1h-.9l.5-1.1.5,1.1h0Z"/>
  <polygon class="st2" points="57.8 6 58.5 6 58.5 5.8 56.9 5.8 56.9 6 57.6 6 57.6 7.8 57.8 7.8 57.8 6"/>
  <path class="st2" d="M60.7,7.8l-.6-.8c.3,0,.6-.3.6-.6s-.3-.6-.7-.6h-.9v2.1h.2v-.8h.6l.6.8h.3,0ZM60.4,6.4c0,.3-.2.4-.5.4h-.6v-.8h.6c.3,0,.5.2.5.4"/>
  <rect class="st1" x="61.1" y="5.8" width=".2" height="2.1"/>
  <polygon class="st2" points="63.7 6.2 63.7 7.8 63.9 7.8 63.9 5.8 63.7 5.8 62.9 6.9 62.2 5.8 61.9 5.8 61.9 7.8 62.2 7.8 62.2 6.2 62.9 7.3 62.9 7.3 63.7 6.2"/>
  <path class="st2" d="M66.5,6.8c0-.6-.4-1.1-1-1.1s-1.1.5-1.1,1.1.4,1.1,1,1.1,1.1-.5,1.1-1.1M66.3,6.8c0,.5-.3.8-.8.8s-.8-.4-.8-.9.3-.8.8-.8.8.4.8.9"/>
  <polygon class="st2" points="68.5 7.4 67.2 5.8 67 5.8 67 7.8 67.2 7.8 67.2 6.1 68.6 7.8 68.7 7.8 68.7 5.8 68.5 5.8 68.5 7.4"/>
  <rect class="st1" x="69.3" y="5.8" width=".2" height="2.1"/>
  <polygon class="st2" points="72.8 6.2 72.8 7.8 73 7.8 73 5.8 72.8 5.8 72 6.9 71.3 5.8 71.1 5.8 71.1 7.8 71.3 7.8 71.3 6.2 72 7.3 72 7.3 72.8 6.2"/>
  <path class="st2" d="M75.3,5.8h-.2v1.2c0,.5-.2.7-.6.7s-.6-.2-.6-.7v-1.2h-.2v1.2c0,.6.3.9.9.9s.9-.3.9-.9v-1.2h-.2Z"/>
  <polygon class="st2" points="77.4 7.4 76.1 5.8 75.8 5.8 75.8 7.8 76.1 7.8 76.1 6.1 77.4 7.8 77.6 7.8 77.6 5.8 77.4 5.8 77.4 7.4"/>
  <path class="st2" d="M80,6.8c0-.6-.4-1-1.1-1h-.7v2.1h.7c.6,0,1.1-.5,1.1-1M79.7,6.8c0,.5-.3.8-.9.8h-.5v-1.6h.5c.5,0,.9.4.9.8"/>
  <rect class="st1" x="80.5" y="5.8" width=".2" height="2.1"/>
  <path class="st2" d="M82.3,5.8h-.2l-.9,2.1h.2l.2-.5h1.1l.2.5h.2l-.9-2.1h.1ZM82.6,7.1h-.9l.5-1.1.5,1.1h0Z"/>
  <polygon class="st2" points="83.6 7.8 85 7.8 85 7.6 83.9 7.6 83.9 5.8 83.6 5.8 83.6 7.8"/>
</svg>